<svg xmlns="http://www.w3.org/2000/svg" xmlns:xlink="http://www.w3.org/1999/xlink" id="uuid-1cdcca7d-00c1-402b-a13f-bc3c0d3bb051" data-name="Layer 1" width="1000" height="318.18" viewBox="0 0 1000 318.18"><defs><linearGradient id="uuid-eff9d095-4ad5-4224-8189-64a6c23e794f" x1="32.59" y1="73.86" x2="394.04" y2="73.86" gradientTransform="translate(0 295.07) scale(1 -1)" gradientUnits="userSpaceOnUse"><stop offset="0" stop-color="#26723a"></stop><stop offset=".42" stop-color="#56b374"></stop><stop offset=".82" stop-color="#c2d342"></stop></linearGradient><linearGradient id="uuid-14c675f7-bf58-445b-bca4-34e281d89dbd" x1="912.14" y1="58.55" x2="826.39" y2="398.59" gradientTransform="translate(182.29 989.51) rotate(-75.6) scale(1 -1)" gradientUnits="userSpaceOnUse"><stop offset=".01" stop-color="#005063"></stop><stop offset=".56" stop-color="#6ec6bc"></stop><stop offset="1" stop-color="#e0f3f1"></stop></linearGradient></defs><g><path d="M854.15,240.95h50.35l-2.67,17.18h-66.64V60.29h66.05v17.47h-47.09v66.05h44.43v17.18h-44.43v79.97ZM917.07,60.29v17.47h32.28v180.37h18.66V77.76h31.99v-17.47h-82.93Z" fill="#47b7aa"></path><path d="M484.83,57.62c-27.54,0-42.06,17.77-42.06,50.35v101.59c0,31.39,10.37,51.24,40.87,51.24,28.43,0,42.35-17.47,42.35-51.53v-101.29c0-29.62-12.14-50.35-41.17-50.35ZM506.75,209.86c0,24.88-7.7,33.76-22.21,33.76s-22.51-9.18-22.51-32.87v-103.36c0-22.51,7.11-32.58,22.21-32.58s22.51,10.66,22.51,32.88v102.18ZM594.11,105.6c-15.7,0-23.69,8.59-27.25,18.66,0-7.4-.3-13.03-.89-16.29h-17.77c.3,9.48.3,22.81.3,43.24v157.56h18.66v-63.38c3.26,7.11,9.48,15.1,24.88,15.1,19.25,0,32.28-14.22,32.28-47.39v-64.27c0-29.62-9.77-43.24-30.21-43.24ZM605.37,213.71c0,18.95-5.33,29.32-18.36,29.32-17.47,0-19.84-18.66-19.84-36.73v-48.57c0-19.84,4.15-34.65,21.32-34.65,9.77,0,16.88,7.11,16.88,26.36v64.27ZM679.71,105.6c-29.32,0-37.61,23.69-37.61,47.09v57.46c0,30.51,7.4,50.35,37.32,50.35,31.99,0,36.13-25.77,36.13-43.54v-1.18h-18.36v1.18c0,15.4-2.96,27.25-17.77,27.25-15.7,0-18.66-16.88-18.66-32.58v-25.17h55.09v-33.76c0-25.77-8-47.09-36.13-47.09ZM697.77,170.76h-37.02v-19.25c0-16.59,3.55-29.62,18.66-29.62,16.29,0,18.36,15.4,18.36,29.32v19.55ZM810.91,142.03v116.1h-18.95v-112.54c0-14.51-4.74-22.51-16.29-22.51-13.03,0-21.32,6.22-21.32,36.73v98.33h-18.66v-104.55c0-30.21,0-38.21-.3-45.61h17.77c.59,3.26.89,8.29.89,15.4,4.44-11.55,13.62-17.77,27.54-17.77,15.99,0,29.32,8.89,29.32,36.43Z" fill="#fff"></path></g><g><path d="M179.43,317.69c.35.03.69.05,1.03.07.78.05,1.56.1,2.34.14,1.22.07,2.44.12,3.64.17.25,0,.5.02.74.03.85.03,1.7.05,2.55.06.28,0,.57,0,.85,0,1.1.01,2.19.02,3.27,0,1.08,0,2.17-.02,3.24-.05h.07c78.12-2.17,130.18-55.51,148.21-109.77,9.62-28.94,15.59-32.04,39.28-29.52-120.01-50.83-129.39,101.31-248.03,81.96,114.61-16.09,104.59-136.62,226.58-101.59C207.73,49.28,208.33,233.03,50.89,238.88c35.3,51.39,89.02,75.79,128.54,78.81h0Z" fill="url(#uuid-eff9d095-4ad5-4224-8189-64a6c23e794f)"></path><path d="M253.93,12.79c67.11,26.09,97.86,103.26,104.82,114.2-3.08-3.58-43.08-47.87-108.51-36.93-79.1,15.5-79.33,104.63-176.67,89.13C26.44,172.32,0,146.63,0,146.63,119.83,157.81,115.78-40.92,253.93,12.79ZM111.95,48.32C135.45,13.53,144.14,9.1,172.68.85c-45.42-4.52-68.95,9.09-87.08,38.49-15.2,24.67-28.82,57.34-58.51,59.8,0,0,5,6.15,21.13,6.46,30.56.58,46.5-31.8,63.72-57.27h0Z" fill="url(#uuid-14c675f7-bf58-445b-bca4-34e281d89dbd)"></path></g></svg>